<svg xmlns="http://www.w3.org/2000/svg" viewBox="0 0 48 48" width="48" height="48">
  <defs>
    <linearGradient id="shieldGrad" x1="0%" y1="0%" x2="100%" y2="100%">
      <stop offset="0%" stop-color="#25D366"/>
      <stop offset="100%" stop-color="#128C7E"/>
    </linearGradient>
    <filter id="glow">
      <feGaussianBlur stdDeviation="1" result="blur"/>
      <feMerge><feMergeNode in="blur"/><feMergeNode in="SourceGraphic"/></feMerge>
    </filter>
  </defs>
  <path d="M24 3L6 12v9c0 11.5 7.7 22.3 18 24 10.3-1.7 18-12.5 18-24v-9L24 3z" fill="url(#shieldGrad)" opacity="0.9"/>
  <path d="M24 6L9 13.5v7.5c0 10.2 6.7 19.7 15 21 8.3-1.3 15-10.8 15-21v-7.5L24 6z" fill="#1a1a2e"/>
  <g filter="url(#glow)">
    <circle cx="20" cy="19" r="4.5" fill="none" stroke="#25D366" stroke-width="2.2"/>
    <rect x="24" y="17.5" width="11" height="2.5" rx="1.25" fill="#25D366"/>
    <rect x="31.5" y="17.5" width="2" height="5" rx="0.7" fill="#25D366"/>
    <rect x="28" y="17.5" width="2" height="3.5" rx="0.7" fill="#25D366"/>
  </g>
  <text x="24" y="35" text-anchor="middle" fill="#25D366" font-family="system-ui" font-size="6" font-weight="bold" opacity="0.8">PASSKEY</text>
</svg>
