<svg xmlns="http://www.w3.org/2000/svg" viewBox="0 0 16 16" width="16" height="16">
  <defs>
    <linearGradient id="g" x1="0%" y1="0%" x2="100%" y2="100%">
      <stop offset="0%" stop-color="#25D366"/>
      <stop offset="100%" stop-color="#128C7E"/>
    </linearGradient>
  </defs>
  <path d="M8 1C4.7 1 2 3.7 2 7v2.5L1 11v1h4.1c.2 1.1 1.2 2 2.4 2h1c1.2 0 2.2-.9 2.4-2H15v-1l-1-1.5V7c0-3.3-2.7-6-6-6zm0 1.5c2.5 0 4.5 2 4.5 4.5v3H3.5V7c0-2.5 2-4.5 4.5-4.5z" fill="url(#g)"/>
  <circle cx="11" cy="5" r="2.5" fill="none" stroke="#25D366" stroke-width="1.2"/>
  <rect x="12.5" y="6.5" width="1.2" height="3" rx="0.4" fill="#25D366" transform="rotate(45 13 8)"/>
</svg>
