<svg xmlns="http://www.w3.org/2000/svg" viewBox="0 0 32 32" width="32" height="32">
  <defs>
    <linearGradient id="shieldGrad" x1="0%" y1="0%" x2="100%" y2="100%">
      <stop offset="0%" stop-color="#25D366"/>
      <stop offset="100%" stop-color="#128C7E"/>
    </linearGradient>
  </defs>
  <path d="M16 2L4 8v6c0 7.7 5.1 14.9 12 16 6.9-1.1 12-8.3 12-16V8L16 2z" fill="url(#shieldGrad)" opacity="0.9"/>
  <path d="M16 4L6 9v5c0 6.8 4.5 13.1 10 14 5.5-.9 10-7.2 10-14V9L16 4z" fill="#1a1a2e"/>
  <circle cx="14" cy="13" r="3" fill="none" stroke="#25D366" stroke-width="1.8"/>
  <rect x="16.5" y="14" width="7" height="1.8" rx="0.9" fill="#25D366"/>
  <rect x="21" y="14" width="1.8" height="3.5" rx="0.5" fill="#25D366"/>
  <rect x="18.5" y="14" width="1.8" height="2.5" rx="0.5" fill="#25D366"/>
</svg>
